<svg xmlns="http://www.w3.org/2000/svg" width="26.404" height="26.401" viewBox="0 0 26.404 26.401">
  <g id="Group_1" data-name="Group 1" transform="translate(-1 -1)">
    <path id="Path_3" data-name="Path 3" d="M29.2,7.9a2.275,2.275,0,0,0-1.012-1.443L20.2,1.361A2.337,2.337,0,0,0,18.961,1a2.3,2.3,0,0,0-1.945,1.074l-.616.968a3.271,3.271,0,0,1,.845.634,3.332,3.332,0,0,1,.924,2.332V25.853a2.27,2.27,0,0,0,.9-.81l9.821-15.4A2.3,2.3,0,0,0,29.2,7.9Z" transform="translate(-1.847)" fill="#555568"/>
    <path id="Path_4" data-name="Path 4" d="M12.775,5.01H3.306A2.308,2.308,0,0,0,1,7.316V25.577a2.3,2.3,0,0,0,2.306,2.306h9.469a2.308,2.308,0,0,0,2.306-2.306V7.316a2.266,2.266,0,0,0-.634-1.584A2.3,2.3,0,0,0,12.775,5.01ZM6.28,19.751a.88.88,0,0,1-1.76,0V9.621a.88.88,0,0,1,1.76,0Zm4.655,2.306a.88.88,0,0,1-1.76,0V11.927a.88.88,0,0,1,1.76,0Z" transform="translate(0 -0.481)" fill="#555568"/>
  </g>
</svg>
