<svg xmlns="http://www.w3.org/2000/svg" width="29.824" height="29.824" viewBox="0 0 29.824 29.824">
  <path id="GitHub" d="M135.65,151.766q-.155.175-.388-.058-.252-.214-.078-.369.155-.175.388.058Q135.806,151.611,135.65,151.766Zm-.816-1.184q.175.233,0,.369-.155.117-.33-.136t0-.35Q134.679,150.329,134.835,150.582Zm-1.184-1.165a.166.166,0,0,1-.252.039q-.194-.1-.136-.233.058-.1.252-.039Q133.709,149.281,133.65,149.417Zm.6.66q-.117.136-.311-.058-.175-.214-.039-.311.117-.117.311.058Q134.388,149.98,134.252,150.077Zm2.5,2.175q-.078.233-.369.117-.33-.078-.252-.291t.369-.136Q136.815,152.038,136.757,152.252Zm1.223.1q0,.214-.311.214-.33.039-.33-.214,0-.214.311-.214Q137.98,152.1,137.98,152.349Zm1.126-.194q.039.194-.272.272t-.35-.155q-.039-.233.272-.291Q139.068,151.941,139.106,152.155Zm18.718-18.563v18.64a5.6,5.6,0,0,1-5.592,5.592h-4.349a4.37,4.37,0,0,1-.476-.019,1.716,1.716,0,0,1-.379-.1.533.533,0,0,1-.311-.282,1.25,1.25,0,0,1-.1-.534v-4.641a3.458,3.458,0,0,0-1.01-2.757,13.3,13.3,0,0,0,1.99-.35,7.931,7.931,0,0,0,1.825-.757A5.427,5.427,0,0,0,151,147.1a6.009,6.009,0,0,0,1.029-2.039,9.789,9.789,0,0,0,.4-2.922,5.663,5.663,0,0,0-1.534-4,5.17,5.17,0,0,0-.155-3.961,2.544,2.544,0,0,0-1.573.214,10.458,10.458,0,0,0-1.786.854l-.738.466a14.018,14.018,0,0,0-7.456,0q-.311-.214-.825-.524a11.641,11.641,0,0,0-1.621-.748,2.721,2.721,0,0,0-1.67-.262,5.221,5.221,0,0,0-.136,3.961,5.663,5.663,0,0,0-1.534,4,9.692,9.692,0,0,0,.4,2.913,6.252,6.252,0,0,0,1.019,2.039,5.231,5.231,0,0,0,1.563,1.3,7.931,7.931,0,0,0,1.825.757,13.3,13.3,0,0,0,1.99.35,3.146,3.146,0,0,0-.951,2,3.851,3.851,0,0,1-.874.291,5.5,5.5,0,0,1-1.107.1,2.287,2.287,0,0,1-1.272-.417,3.423,3.423,0,0,1-1.078-1.214,3.133,3.133,0,0,0-.942-1.01,2.835,2.835,0,0,0-.961-.466l-.388-.058a1.259,1.259,0,0,0-.563.087q-.155.087-.1.223a1.069,1.069,0,0,0,.175.272,1.42,1.42,0,0,0,.252.233l.136.1a2.344,2.344,0,0,1,.845.738,4.856,4.856,0,0,1,.612.99l.194.447a2.462,2.462,0,0,0,.854,1.194,3.021,3.021,0,0,0,1.3.583,8.291,8.291,0,0,0,1.349.136,5.711,5.711,0,0,0,1.078-.068l.447-.078q0,.738.01,2t.01,1.32a.906.906,0,0,1-.214.65.75.75,0,0,1-.427.252,5.161,5.161,0,0,1-.641.029h-4.349A5.6,5.6,0,0,1,128,152.232v-18.64A5.6,5.6,0,0,1,133.592,128h18.64a5.6,5.6,0,0,1,5.592,5.592Z" transform="translate(-128 -128)" fill="#555568"/>
</svg>
