<svg xmlns="http://www.w3.org/2000/svg" width="29.645" height="29.824" viewBox="0 0 29.645 29.824">
  <path id="LinkedIn" d="M29.513,2H4.252A2.162,2.162,0,0,0,2.06,4.132V29.692a2.162,2.162,0,0,0,2.192,2.132H29.513a2.162,2.162,0,0,0,2.192-2.132V4.132A2.162,2.162,0,0,0,29.513,2ZM11.052,26.963H6.578V13.542h4.474Zm-2.237-15.3h0a2.326,2.326,0,1,1,0-4.653,2.341,2.341,0,1,1,0,4.653Zm18.372,15.3H22.713v-7.2c0-1.8-.641-2.982-2.267-2.982a2.46,2.46,0,0,0-2.3,1.625A2.982,2.982,0,0,0,18,19.492v7.456H13.527V13.527H18v1.894a4.474,4.474,0,0,1,4.041-2.237c2.982,0,5.145,1.924,5.145,6.054Z" transform="translate(-2.06 -2)" fill="#555568"/>
</svg>
